solid ASCII
  facet normal 9.251859e-17 -1.000000e+00 0.000000e+00
    outer loop
      vertex   3.000000e-01 1.500000e-01 5.600000e-01
      vertex   -3.000000e-01 1.500000e-01 5.600000e-01
      vertex   3.000000e-01 1.500000e-01 0.000000e+00
    endloop
  endfacet
  facet normal 9.251859e-17 -1.000000e+00 0.000000e+00
    outer loop
      vertex   3.000000e-01 1.500000e-01 0.000000e+00
      vertex   -3.000000e-01 1.500000e-01 5.600000e-01
      vertex   -3.000000e-01 1.500000e-01 0.000000e+00
    endloop
  endfacet
  facet normal -0.000000e+00 0.000000e+00 -1.000000e+00
    outer loop
      vertex   3.000000e-01 1.500000e-01 0.000000e+00
      vertex   -3.000000e-01 1.500000e-01 0.000000e+00
      vertex   3.000000e-01 2.600000e-01 0.000000e+00
    endloop
  endfacet
  facet normal -0.000000e+00 0.000000e+00 -1.000000e+00
    outer loop
      vertex   3.000000e-01 2.600000e-01 0.000000e+00
      vertex   -3.000000e-01 1.500000e-01 0.000000e+00
      vertex   -3.000000e-01 2.600000e-01 0.000000e+00
    endloop
  endfacet
  facet normal 0.000000e+00 0.000000e+00 -1.000000e+00
    outer loop
      vertex   3.000000e-01 2.600000e-01 0.000000e+00
      vertex   -3.000000e-01 2.600000e-01 0.000000e+00
      vertex   2.948889e-01 2.988229e-01 0.000000e+00
    endloop
  endfacet
  facet normal -0.000000e+00 0.000000e+00 -1.000000e+00
    outer loop
      vertex   2.948889e-01 2.988229e-01 0.000000e+00
      vertex   -3.000000e-01 2.600000e-01 0.000000e+00
      vertex   -2.948889e-01 2.988229e-01 0.000000e+00
    endloop
  endfacet
  facet normal 0.000000e+00 0.000000e+00 -1.000000e+00
    outer loop
      vertex   2.948889e-01 2.988229e-01 0.000000e+00
      vertex   -2.948889e-01 2.988229e-01 0.000000e+00
      vertex   2.799038e-01 3.350000e-01 0.000000e+00
    endloop
  endfacet
  facet normal -0.000000e+00 0.000000e+00 -1.000000e+00
    outer loop
      vertex   2.799038e-01 3.350000e-01 0.000000e+00
      vertex   -2.948889e-01 2.988229e-01 0.000000e+00
      vertex   -2.799038e-01 3.350000e-01 0.000000e+00
    endloop
  endfacet
  facet normal 0.000000e+00 0.000000e+00 -1.000000e+00
    outer loop
      vertex   2.799038e-01 3.350000e-01 0.000000e+00
      vertex   -2.799038e-01 3.350000e-01 0.000000e+00
      vertex   1.500000e-01 4.100000e-01 0.000000e+00
    endloop
  endfacet
  facet normal -0.000000e+00 0.000000e+00 -1.000000e+00
    outer loop
      vertex   1.500000e-01 4.100000e-01 0.000000e+00
      vertex   -2.799038e-01 3.350000e-01 0.000000e+00
      vertex   -1.500000e-01 4.100000e-01 0.000000e+00
    endloop
  endfacet
  facet normal 0.000000e+00 0.000000e+00 -1.000000e+00
    outer loop
      vertex   -1.500000e-01 4.100000e-01 0.000000e+00
      vertex   -2.799038e-01 3.350000e-01 0.000000e+00
      vertex   -2.560660e-01 3.660660e-01 0.000000e+00
    endloop
  endfacet
  facet normal 0.000000e+00 0.000000e+00 -1.000000e+00
    outer loop
      vertex   -1.500000e-01 4.100000e-01 0.000000e+00
      vertex   -2.560660e-01 3.660660e-01 0.000000e+00
      vertex   -2.250000e-01 3.899038e-01 0.000000e+00
    endloop
  endfacet
  facet normal 0.000000e+00 0.000000e+00 -1.000000e+00
    outer loop
      vertex   -2.250000e-01 3.899038e-01 0.000000e+00
      vertex   -1.888229e-01 4.048889e-01 0.000000e+00
      vertex   -1.500000e-01 4.100000e-01 0.000000e+00
    endloop
  endfacet
  facet normal -0.000000e+00 -0.000000e+00 -1.000000e+00
    outer loop
      vertex   1.888229e-01 4.048889e-01 0.000000e+00
      vertex   2.250000e-01 3.899038e-01 0.000000e+00
      vertex   1.500000e-01 4.100000e-01 0.000000e+00
    endloop
  endfacet
  facet normal 0.000000e+00 0.000000e+00 -1.000000e+00
    outer loop
      vertex   1.500000e-01 4.100000e-01 0.000000e+00
      vertex   2.250000e-01 3.899038e-01 0.000000e+00
      vertex   2.560660e-01 3.660660e-01 0.000000e+00
    endloop
  endfacet
  facet normal 0.000000e+00 0.000000e+00 -1.000000e+00
    outer loop
      vertex   1.500000e-01 4.100000e-01 0.000000e+00
      vertex   2.560660e-01 3.660660e-01 0.000000e+00
      vertex   2.799038e-01 3.350000e-01 0.000000e+00
    endloop
  endfacet
  facet normal -1.000000e+00 0.000000e+00 0.000000e+00
    outer loop
      vertex   -3.000000e-01 1.500000e-01 5.600000e-01
      vertex   -3.000000e-01 2.600000e-01 5.600000e-01
      vertex   -3.000000e-01 1.500000e-01 0.000000e+00
    endloop
  endfacet
  facet normal -1.000000e+00 0.000000e+00 0.000000e+00
    outer loop
      vertex   -3.000000e-01 1.500000e-01 0.000000e+00
      vertex   -3.000000e-01 2.600000e-01 5.600000e-01
      vertex   -3.000000e-01 2.600000e-01 0.000000e+00
    endloop
  endfacet
  facet normal -9.914449e-01 1.305262e-01 0.000000e+00
    outer loop
      vertex   -3.000000e-01 2.600000e-01 0.000000e+00
      vertex   -3.000000e-01 2.600000e-01 5.600000e-01
      vertex   -2.948889e-01 2.988229e-01 0.000000e+00
    endloop
  endfacet
  facet normal -9.914449e-01 1.305262e-01 0.000000e+00
    outer loop
      vertex   -2.948889e-01 2.988229e-01 0.000000e+00
      vertex   -3.000000e-01 2.600000e-01 5.600000e-01
      vertex   -2.948889e-01 2.988229e-01 5.600000e-01
    endloop
  endfacet
  facet normal -9.238795e-01 3.826834e-01 0.000000e+00
    outer loop
      vertex   -2.948889e-01 2.988229e-01 0.000000e+00
      vertex   -2.948889e-01 2.988229e-01 5.600000e-01
      vertex   -2.799038e-01 3.350000e-01 0.000000e+00
    endloop
  endfacet
  facet normal -9.238795e-01 3.826834e-01 0.000000e+00
    outer loop
      vertex   -2.799038e-01 3.350000e-01 0.000000e+00
      vertex   -2.948889e-01 2.988229e-01 5.600000e-01
      vertex   -2.799038e-01 3.350000e-01 5.600000e-01
    endloop
  endfacet
  facet normal -7.933533e-01 6.087614e-01 0.000000e+00
    outer loop
      vertex   -2.799038e-01 3.350000e-01 0.000000e+00
      vertex   -2.799038e-01 3.350000e-01 5.600000e-01
      vertex   -2.560660e-01 3.660660e-01 0.000000e+00
    endloop
  endfacet
  facet normal -7.933533e-01 6.087614e-01 0.000000e+00
    outer loop
      vertex   -2.560660e-01 3.660660e-01 0.000000e+00
      vertex   -2.799038e-01 3.350000e-01 5.600000e-01
      vertex   -2.560660e-01 3.660660e-01 5.600000e-01
    endloop
  endfacet
  facet normal -6.087614e-01 7.933533e-01 0.000000e+00
    outer loop
      vertex   -2.560660e-01 3.660660e-01 0.000000e+00
      vertex   -2.560660e-01 3.660660e-01 5.600000e-01
      vertex   -2.250000e-01 3.899038e-01 0.000000e+00
    endloop
  endfacet
  facet normal -6.087614e-01 7.933533e-01 0.000000e+00
    outer loop
      vertex   -2.250000e-01 3.899038e-01 0.000000e+00
      vertex   -2.560660e-01 3.660660e-01 5.600000e-01
      vertex   -2.250000e-01 3.899038e-01 5.600000e-01
    endloop
  endfacet
  facet normal -3.826834e-01 9.238795e-01 0.000000e+00
    outer loop
      vertex   -2.250000e-01 3.899038e-01 0.000000e+00
      vertex   -2.250000e-01 3.899038e-01 5.600000e-01
      vertex   -1.888229e-01 4.048889e-01 0.000000e+00
    endloop
  endfacet
  facet normal -3.826834e-01 9.238795e-01 0.000000e+00
    outer loop
      vertex   -1.888229e-01 4.048889e-01 0.000000e+00
      vertex   -2.250000e-01 3.899038e-01 5.600000e-01
      vertex   -1.888229e-01 4.048889e-01 5.600000e-01
    endloop
  endfacet
  facet normal -1.305262e-01 9.914449e-01 0.000000e+00
    outer loop
      vertex   -1.888229e-01 4.048889e-01 0.000000e+00
      vertex   -1.888229e-01 4.048889e-01 5.600000e-01
      vertex   -1.500000e-01 4.100000e-01 0.000000e+00
    endloop
  endfacet
  facet normal -1.305262e-01 9.914449e-01 0.000000e+00
    outer loop
      vertex   -1.500000e-01 4.100000e-01 0.000000e+00
      vertex   -1.888229e-01 4.048889e-01 5.600000e-01
      vertex   -1.500000e-01 4.100000e-01 5.600000e-01
    endloop
  endfacet
  facet normal 0.000000e+00 0.000000e+00 1.000000e+00
    outer loop
      vertex   -3.000000e-01 1.500000e-01 5.600000e-01
      vertex   3.000000e-01 1.500000e-01 5.600000e-01
      vertex   -3.000000e-01 2.600000e-01 5.600000e-01
    endloop
  endfacet
  facet normal -0.000000e+00 0.000000e+00 1.000000e+00
    outer loop
      vertex   -3.000000e-01 2.600000e-01 5.600000e-01
      vertex   3.000000e-01 1.500000e-01 5.600000e-01
      vertex   3.000000e-01 2.600000e-01 5.600000e-01
    endloop
  endfacet
  facet normal 0.000000e+00 0.000000e+00 1.000000e+00
    outer loop
      vertex   -3.000000e-01 2.600000e-01 5.600000e-01
      vertex   3.000000e-01 2.600000e-01 5.600000e-01
      vertex   -2.948889e-01 2.988229e-01 5.600000e-01
    endloop
  endfacet
  facet normal -0.000000e+00 0.000000e+00 1.000000e+00
    outer loop
      vertex   -2.948889e-01 2.988229e-01 5.600000e-01
      vertex   3.000000e-01 2.600000e-01 5.600000e-01
      vertex   2.948889e-01 2.988229e-01 5.600000e-01
    endloop
  endfacet
  facet normal 0.000000e+00 0.000000e+00 1.000000e+00
    outer loop
      vertex   -2.948889e-01 2.988229e-01 5.600000e-01
      vertex   2.948889e-01 2.988229e-01 5.600000e-01
      vertex   -2.799038e-01 3.350000e-01 5.600000e-01
    endloop
  endfacet
  facet normal -0.000000e+00 0.000000e+00 1.000000e+00
    outer loop
      vertex   -2.799038e-01 3.350000e-01 5.600000e-01
      vertex   2.948889e-01 2.988229e-01 5.600000e-01
      vertex   2.799038e-01 3.350000e-01 5.600000e-01
    endloop
  endfacet
  facet normal 0.000000e+00 0.000000e+00 1.000000e+00
    outer loop
      vertex   -2.799038e-01 3.350000e-01 5.600000e-01
      vertex   2.799038e-01 3.350000e-01 5.600000e-01
      vertex   -1.500000e-01 4.100000e-01 5.600000e-01
    endloop
  endfacet
  facet normal -0.000000e+00 0.000000e+00 1.000000e+00
    outer loop
      vertex   -1.500000e-01 4.100000e-01 5.600000e-01
      vertex   2.799038e-01 3.350000e-01 5.600000e-01
      vertex   1.500000e-01 4.100000e-01 5.600000e-01
    endloop
  endfacet
  facet normal 0.000000e+00 0.000000e+00 1.000000e+00
    outer loop
      vertex   1.500000e-01 4.100000e-01 5.600000e-01
      vertex   2.799038e-01 3.350000e-01 5.600000e-01
      vertex   2.560660e-01 3.660660e-01 5.600000e-01
    endloop
  endfacet
  facet normal 0.000000e+00 0.000000e+00 1.000000e+00
    outer loop
      vertex   1.500000e-01 4.100000e-01 5.600000e-01
      vertex   2.560660e-01 3.660660e-01 5.600000e-01
      vertex   2.250000e-01 3.899038e-01 5.600000e-01
    endloop
  endfacet
  facet normal 0.000000e+00 0.000000e+00 1.000000e+00
    outer loop
      vertex   2.250000e-01 3.899038e-01 5.600000e-01
      vertex   1.888229e-01 4.048889e-01 5.600000e-01
      vertex   1.500000e-01 4.100000e-01 5.600000e-01
    endloop
  endfacet
  facet normal -0.000000e+00 0.000000e+00 1.000000e+00
    outer loop
      vertex   -1.888229e-01 4.048889e-01 5.600000e-01
      vertex   -2.250000e-01 3.899038e-01 5.600000e-01
      vertex   -1.500000e-01 4.100000e-01 5.600000e-01
    endloop
  endfacet
  facet normal 0.000000e+00 0.000000e+00 1.000000e+00
    outer loop
      vertex   -1.500000e-01 4.100000e-01 5.600000e-01
      vertex   -2.250000e-01 3.899038e-01 5.600000e-01
      vertex   -2.560660e-01 3.660660e-01 5.600000e-01
    endloop
  endfacet
  facet normal 0.000000e+00 0.000000e+00 1.000000e+00
    outer loop
      vertex   -1.500000e-01 4.100000e-01 5.600000e-01
      vertex   -2.560660e-01 3.660660e-01 5.600000e-01
      vertex   -2.799038e-01 3.350000e-01 5.600000e-01
    endloop
  endfacet
  facet normal 1.305262e-01 9.914449e-01 -0.000000e+00
    outer loop
      vertex   1.500000e-01 4.100000e-01 0.000000e+00
      vertex   1.500000e-01 4.100000e-01 5.600000e-01
      vertex   1.888229e-01 4.048889e-01 0.000000e+00
    endloop
  endfacet
  facet normal 1.305262e-01 9.914449e-01 -0.000000e+00
    outer loop
      vertex   1.888229e-01 4.048889e-01 0.000000e+00
      vertex   1.500000e-01 4.100000e-01 5.600000e-01
      vertex   1.888229e-01 4.048889e-01 5.600000e-01
    endloop
  endfacet
  facet normal 3.826834e-01 9.238795e-01 -0.000000e+00
    outer loop
      vertex   1.888229e-01 4.048889e-01 0.000000e+00
      vertex   1.888229e-01 4.048889e-01 5.600000e-01
      vertex   2.250000e-01 3.899038e-01 0.000000e+00
    endloop
  endfacet
  facet normal 3.826834e-01 9.238795e-01 -0.000000e+00
    outer loop
      vertex   2.250000e-01 3.899038e-01 0.000000e+00
      vertex   1.888229e-01 4.048889e-01 5.600000e-01
      vertex   2.250000e-01 3.899038e-01 5.600000e-01
    endloop
  endfacet
  facet normal 6.087614e-01 7.933533e-01 -0.000000e+00
    outer loop
      vertex   2.250000e-01 3.899038e-01 0.000000e+00
      vertex   2.250000e-01 3.899038e-01 5.600000e-01
      vertex   2.560660e-01 3.660660e-01 0.000000e+00
    endloop
  endfacet
  facet normal 6.087614e-01 7.933533e-01 -0.000000e+00
    outer loop
      vertex   2.560660e-01 3.660660e-01 0.000000e+00
      vertex   2.250000e-01 3.899038e-01 5.600000e-01
      vertex   2.560660e-01 3.660660e-01 5.600000e-01
    endloop
  endfacet
  facet normal 7.933533e-01 6.087614e-01 -0.000000e+00
    outer loop
      vertex   2.560660e-01 3.660660e-01 0.000000e+00
      vertex   2.560660e-01 3.660660e-01 5.600000e-01
      vertex   2.799038e-01 3.350000e-01 0.000000e+00
    endloop
  endfacet
  facet normal 7.933533e-01 6.087614e-01 -0.000000e+00
    outer loop
      vertex   2.799038e-01 3.350000e-01 0.000000e+00
      vertex   2.560660e-01 3.660660e-01 5.600000e-01
      vertex   2.799038e-01 3.350000e-01 5.600000e-01
    endloop
  endfacet
  facet normal 9.238795e-01 3.826834e-01 -0.000000e+00
    outer loop
      vertex   2.799038e-01 3.350000e-01 0.000000e+00
      vertex   2.799038e-01 3.350000e-01 5.600000e-01
      vertex   2.948889e-01 2.988229e-01 0.000000e+00
    endloop
  endfacet
  facet normal 9.238795e-01 3.826834e-01 -0.000000e+00
    outer loop
      vertex   2.948889e-01 2.988229e-01 0.000000e+00
      vertex   2.799038e-01 3.350000e-01 5.600000e-01
      vertex   2.948889e-01 2.988229e-01 5.600000e-01
    endloop
  endfacet
  facet normal 9.914449e-01 1.305262e-01 -0.000000e+00
    outer loop
      vertex   2.948889e-01 2.988229e-01 0.000000e+00
      vertex   2.948889e-01 2.988229e-01 5.600000e-01
      vertex   3.000000e-01 2.600000e-01 0.000000e+00
    endloop
  endfacet
  facet normal 9.914449e-01 1.305262e-01 -0.000000e+00
    outer loop
      vertex   3.000000e-01 2.600000e-01 0.000000e+00
      vertex   2.948889e-01 2.988229e-01 5.600000e-01
      vertex   3.000000e-01 2.600000e-01 5.600000e-01
    endloop
  endfacet
  facet normal 1.000000e+00 0.000000e+00 0.000000e+00
    outer loop
      vertex   3.000000e-01 1.500000e-01 0.000000e+00
      vertex   3.000000e-01 2.600000e-01 0.000000e+00
      vertex   3.000000e-01 1.500000e-01 5.600000e-01
    endloop
  endfacet
  facet normal 1.000000e+00 -0.000000e+00 0.000000e+00
    outer loop
      vertex   3.000000e-01 1.500000e-01 5.600000e-01
      vertex   3.000000e-01 2.600000e-01 0.000000e+00
      vertex   3.000000e-01 2.600000e-01 5.600000e-01
    endloop
  endfacet
  facet normal -0.000000e+00 1.000000e+00 0.000000e+00
    outer loop
      vertex   -1.500000e-01 4.100000e-01 5.600000e-01
      vertex   1.500000e-01 4.100000e-01 5.600000e-01
      vertex   -1.500000e-01 4.100000e-01 0.000000e+00
    endloop
  endfacet
  facet normal 0.000000e+00 1.000000e+00 0.000000e+00
    outer loop
      vertex   -1.500000e-01 4.100000e-01 0.000000e+00
      vertex   1.500000e-01 4.100000e-01 5.600000e-01
      vertex   1.500000e-01 4.100000e-01 0.000000e+00
    endloop
  endfacet
endsolid
